Coordinates
version=1
nRows=4
nColumns=107
inDegrees=yes

Units are S.I. units (second, meters, Newtons, ...)
If the header above contains a line with 'inDegrees', this indicates whether rotational values are in degrees (yes) or radians (no).

endheader
time	sternoclavicular_r2	sternoclavicular_r3	unrotscap_r3	unrotscap_r2	acromioclavicular_r2	acromioclavicular_r3	acromioclavicular_r1	unrothum_r1	unrothum_r3	unrothum_r2	elv_angle	shoulder_elv	shoulder1_r2	shoulder_rot	elbow_flexion	pro_sup	deviation	flexion	proximal_distal_r1	proximal_distal_r3	cmc_flexion	cmc_abduction	mp_flexion	ip_flexion	mcp2_flexion	mcp2_abduction	pm2_flexion	md2_flexion	mcp3_flexion	mcp3_abduction	pm3_flexion	md3_flexion	mcp4_flexion	mcp4_abduction	pm4_flexion	md4_flexion	mcp5_flexion	mcp5_abduction	pm5_flexion	md5_flexion	bicpt_tx	bicpt_ty	bicpt_tz	bicpt2_tx	bicpt2_ty	bicpt2_tz	ptpt_tx	ptpt_ty	ptpt_tz	FCUpt_tx	FCUpt_ty	FCUpt_tz	EDCpt_tx	EDCpt_ty	EDCpt_tz	APLpt_tx	APLpt_ty	APLpt_tz	FPLpt_tx	FPLpt_ty	FPLpt_tz	FPLpt2_tx	FPLpt2_ty	FPLpt2_tz	PEC1pt2_tx	PEC1pt2_ty	PEC1pt2_tz	PEC1pt3_tx	PEC1pt3_ty	PEC1pt3_tz	PEC2pt2_tx	PEC2pt2_ty	PEC2pt2_tz	PEC2pt3_tx	PEC2pt3_ty	PEC2pt3_tz	PEC3pt2_tx	PEC3pt2_ty	PEC3pt2_tz	PEC3pt3_tx	PEC3pt3_ty	PEC3pt3_tz	DELT2pt2a_tx	DELT2pt2a_ty	DELT2pt2a_tz	DELT2pt2_tx	DELT2pt2_ty	DELT2pt2_tz	LAT1pt2_tx	LAT1pt2_ty	LAT1pt2_tz	LAT1pt3_tx	LAT1pt3_ty	LAT1pt3_tz	LAT2pt2_tx	LAT2pt2_ty	LAT2pt2_tz	LAT2pt3_tx	LAT2pt3_ty	LAT2pt3_tz	LAT3pt2_tx	LAT3pt2_ty	LAT3pt2_tz	LAT3pt3_tx	LAT3pt3_ty	LAT3pt3_tz
      0.00000000	     -0.32434128	      0.13737566	     -0.13737566	      0.32434128	     -0.06567251	      0.53074214	      0.23856494	     -0.23856494	     -0.53074214	      0.06567251	     98.21340082	     76.79068157	     -1.71414721	    -21.06012043	     30.34177712	     51.75136430	      0.27950545	     -0.67125218	      0.31538422	     -0.33562609	     14.90431019	     -9.28627937	    -24.04586965	     -0.43267025	     31.43182121	     10.35484771	     34.95415811	     14.98472978	     44.04232924	      3.72945334	     25.99969636	     22.89842678	     52.83847955	     -6.68426018	     14.82644337	     23.44885652	     53.18521982	    -13.57472160	      4.17621676	      5.18482416	      0.00090361	     -0.03107763	     -0.00486016	      0.01643842	     -0.01844249	     -0.00611875	      0.00372616	     -0.06737256	     -0.00421885	      0.00898466	     -0.18323100	     -0.00041785	     -0.00621015	      0.00187958	      0.00002464	      0.00030945	      0.00012378	      0.00061890	      0.00039610	      0.00118829	      0.00066841	      0.00002398	     -0.00024920	     -0.00029904	      0.00251703	      0.00883094	      0.00614326	     -0.00823367	      0.01988027	     -0.01885639	      0.00251703	      0.00883094	      0.00614326	      0.00055460	      0.01842978	     -0.00968417	      0.00397148	      0.00491077	      0.01602490	      0.00000000	      0.00788708	      0.00000000	     -0.00720980	     -0.03331865	     -0.00650386	      0.01438073	     -0.00046471	     -0.00367472	     -0.00089589	      0.01501686	     -0.00614326	      0.00247437	      0.02167206	     -0.01791784	     -0.00601528	      0.01301177	     -0.00550334	     -0.01254249	      0.02747402	     -0.03075896	     -0.02354916	      0.01454758	     -0.00738044	     -0.01561412	      0.03174018	     -0.03843803
      0.03333333	     -0.32461498	      0.13749159	     -0.13749159	      0.32461498	     -0.06572793	      0.53119002	      0.23876626	     -0.23876626	     -0.53119002	      0.06572793	     98.17844138	     76.85548263	     -1.71353706	    -20.80854729	     30.29494777	     52.09687144	      0.27947755	     -0.67264703	      0.31535872	     -0.33632351	     14.60212076	     -9.10099702	    -24.15474423	     -0.47370662	     31.35903102	     10.63754306	     34.92911613	     14.97482566	     44.02597149	      3.81139450	     25.95862220	     22.87218630	     52.84145750	     -6.58547472	     14.83642913	     23.45396604	     53.02060211	    -13.63237304	      4.11087065	      5.17148238	      0.00090206	     -0.03107226	     -0.00485929	      0.01642963	     -0.01842977	     -0.00607609	      0.00370063	     -0.06738907	     -0.00424668	      0.00902072	     -0.18322265	     -0.00041719	     -0.00625161	      0.00189491	      0.00001993	      0.00030930	      0.00012372	      0.00061861	      0.00039591	      0.00118773	      0.00066810	      0.00002464	     -0.00024661	     -0.00029593	      0.00251915	      0.00883839	      0.00614844	     -0.00824062	      0.01989705	     -0.01887231	      0.00251915	      0.00883839	      0.00614844	      0.00055507	      0.01844533	     -0.00969234	      0.00397392	      0.00491492	      0.01603079	      0.00000000	      0.00790050	      0.00000000	     -0.00721588	     -0.03334677	     -0.00651499	      0.01423847	     -0.00045690	     -0.00358398	     -0.00089665	      0.01502953	     -0.00614844	      0.00247646	      0.02169034	     -0.01793296	     -0.00602035	      0.01302275	     -0.00550798	     -0.01255307	      0.02749721	     -0.03078492	     -0.02356903	      0.01455986	     -0.00738667	     -0.01562729	      0.03176696	     -0.03847047
      0.06666667	     -0.32039297	      0.13570334	     -0.13570334	      0.32039297	     -0.06487306	      0.52428124	      0.23566081	     -0.23566081	     -0.52428124	      0.06487306	     98.92054434	     75.85588347	     -1.72648920	    -25.38124319	     30.91159941	     56.80969688	      0.26032952	     -0.64798094	      0.29783238	     -0.32399047	     12.08835092	     -8.83194966	    -18.29627705	     -6.11670143	     29.78194529	     11.44835000	     36.98549707	     14.09476529	     43.34153900	      4.23226263	     25.05092721	     25.24049663	     52.22924303	     -5.91538901	     13.55458293	     28.69240928	     51.86051193	    -13.57685450	      4.64134538	      5.18583688	      0.00092246	     -0.03114294	     -0.00487068	      0.01628263	     -0.01859729	     -0.00547750	      0.00335240	     -0.06761423	     -0.00462633	      0.00951622	     -0.18310527	     -0.00039936	     -0.00681715	      0.00210764	     -0.00005082	      0.00031135	      0.00012454	      0.00062270	      0.00039853	      0.00119559	      0.00067252	      0.00002956	     -0.00022106	     -0.00026527	      0.00248639	      0.00872343	      0.00606848	     -0.00813344	      0.01963826	     -0.01862685	      0.00248639	      0.00872343	      0.00606848	      0.00054785	      0.01820543	     -0.00956628	      0.00393615	      0.00485099	      0.01593874	      0.00000000	      0.00769490	      0.00000000	     -0.00712203	     -0.03291305	     -0.00634432	      0.01668786	     -0.00060268	     -0.00538551	     -0.00088499	      0.01483405	     -0.00606848	      0.00244425	      0.02140823	     -0.01769972	     -0.00594205	      0.01285337	     -0.00543634	     -0.01238980	      0.02713957	     -0.03038452	     -0.02326249	      0.01437049	     -0.00729060	     -0.01542404	      0.03135379	     -0.03797012
      0.10000000	     -0.32315516	      0.13687327	     -0.13687327	      0.32315516	     -0.06543235	      0.52880121	      0.23769250	     -0.23769250	     -0.52880121	      0.06543235	     98.42620374	     76.50985650	     -1.71786133	    -22.40021407	     30.49206840	     53.62981386	      0.26686786	     -0.67257971	      0.30388486	     -0.33628986	     12.59826803	     -7.75658129	    -22.22267792	     -0.71961342	     30.43925682	     11.51250600	     37.43813680	     10.35452240	     43.97403978	      4.06868196	     25.77718482	     20.76389360	     52.70425301	     -6.19938932	     14.65299209	     23.20974042	     52.15472446	    -13.67570274	      4.25783958	      5.20889485	      0.00090858	     -0.03109486	     -0.00486293	      0.01638737	     -0.01848332	     -0.00588479	      0.00358736	     -0.06746231	     -0.00437017	      0.00918114	     -0.18318516	     -0.00041322	     -0.00643556	      0.00196336	     -0.00000177	      0.00030931	      0.00012372	      0.00061862	      0.00039592	      0.00118776	      0.00066811	      0.00002865	     -0.00022678	     -0.00027214	      0.00250783	      0.00879864	      0.00612079	     -0.00820356	      0.01980757	     -0.01878744	      0.00250783	      0.00879864	      0.00612079	      0.00055257	      0.01836238	     -0.00964875	      0.00396090	      0.00489281	      0.01599923	      0.00000000	      0.00782910	      0.00000000	     -0.00718343	     -0.03319680	     -0.00645572	      0.01512284	     -0.00050677	     -0.00417600	     -0.00089262	      0.01496194	     -0.00612079	      0.00246532	      0.02159280	     -0.01785231	     -0.00599328	      0.01296418	     -0.00548321	     -0.01249662	      0.02737355	     -0.03064647	     -0.02346304	      0.01449438	     -0.00735345	     -0.01555702	      0.03162410	     -0.03829747
